<?xml version="1.0" encoding="UTF-8"?>
<svg width="101px" height="52px" viewBox="0 0 101 52" version="1.1" xmlns="http://www.w3.org/2000/svg" xmlns:xlink="http://www.w3.org/1999/xlink">
    <!-- Generator: Sketch 60 (88103) - https://sketch.com -->
    <title>direct_debit</title>
    <desc>Created with Sketch.</desc>
    <g id="页面-1" stroke="none" stroke-width="1" fill="none" fill-rule="evenodd">
        <g id="direct_debit" transform="translate(0.121200, 0.000000)">
            <rect id="矩形" stroke="#EEEEEE" stroke-width="0.888888889" fill="#FFFFFF" x="0.444444444" y="0.444444444" width="99.1111111" height="51.1111111" rx="2.66666667"></rect>
            <g transform="translate(6.937500, 12.187500)" fill="#332C2B" id="形状">
                <path d="M40.1269418,5.80377778 L44.5505185,5.80377778 C44.5505185,5.80377778 48.9303492,5.71504762 48.8861905,9.69648677 C48.8420317,12.6607619 44.6393862,13.103037 44.6393862,13.103037 L40.1269418,13.103037 L40.1269418,5.80377778 L40.1269418,5.80377778 Z M53.3612169,20.0934603 C53.4854392,20.6730265 53.9037778,21.3105079 55.3004868,21.3757143 C57.1587302,21.419873 58.2206032,20.7119577 58.2206032,20.7119577 L58.2206032,22.0833545 C58.2206032,22.0833545 56.1851746,22.5700635 55.2121693,22.5700635 C54.1950053,22.5700635 51.1865714,22.3487196 51.1865714,19.5619048 C51.1865714,17.3058201 53.664,16.5977672 55.0791429,16.5977672 C57.556709,16.6864974 58.7510582,17.5710476 58.7068995,20.0926349 C58.7068995,20.1300529 54.6308148,20.1024021 53.3612169,20.0934603 L53.3612169,20.0934603 Z M53.366582,18.9867407 L56.7603386,18.9867407 C56.7603386,18.9867407 56.7603386,17.7039365 55.1238519,17.7039365 C53.891672,17.7039365 53.489291,18.3679683 53.366582,18.9867407 L53.366582,18.9867407 Z M64.1038942,17.6013122 C64.5945926,17.0692063 65.4190265,16.6420635 66.8026667,16.6420635 C69.5455979,16.6420635 69.9877354,18.942582 69.9435767,19.5619048 C69.8988677,20.1812275 69.6780741,22.5259048 66.4930053,22.5259048 C65.2904021,22.5259048 64.5542857,22.1154074 64.1038942,21.6053122 L64.1038942,22.3487196 L61.9365397,22.3487196 L61.9365397,14.3859788 L64.1038942,14.3859788 L64.1038942,17.6013122 Z M65.9621376,21.2871217 C67.2448042,21.2428254 67.8198307,20.1370688 67.8198307,19.6060635 C67.8198307,19.0751958 67.5101693,17.9693016 65.8738201,17.9693016 C64.6032593,17.9693016 64.2169735,18.928963 64.1038942,19.3979259 L64.1038942,19.9751534 C64.2150476,20.4525079 64.6042222,21.2871217 65.9621376,21.2871217 L65.9621376,21.2871217 Z M84.6748466,21.0659153 L84.7190053,22.3045608 C84.7190053,22.3045608 83.7014286,22.5259048 83.0379471,22.5259048 C82.3746032,22.5259048 80.648836,22.1275132 80.648836,20.4465926 C80.648836,19.7620635 80.648836,18.7911217 80.648836,17.880709 L78.8353016,17.880709 L78.8353016,16.7306561 L80.648836,16.7306561 C80.648836,15.9353862 80.648836,15.3591217 80.648836,15.3591217 L82.8608995,15.3591217 L82.8608995,16.7306561 L84.6748466,16.7306561 L84.6748466,17.880709 L82.8608995,17.880709 L82.8608995,20.0926349 C82.8608995,20.0926349 82.8608995,21.1986667 83.7455873,21.1986667 C84.6306878,21.1986667 84.6748466,21.0659153 84.6748466,21.0659153 L84.6748466,21.0659153 Z M77.9506138,6.99812698 L80.5163598,6.99812698 L80.5163598,13.1471958 L82.684127,13.1471958 L82.684127,6.99812698 L85.2941693,6.99812698 L85.2941693,5.71504762 L77.9506138,5.71504762 L77.9506138,6.99812698 Z M77.0657884,7.30778836 L77.331291,6.02512169 C77.331291,6.02512169 76.2252593,5.5384127 74.2786984,5.5384127 C72.3768466,5.5384127 69.324254,6.60014815 69.324254,9.47555556 C69.324254,12.3068042 72.5534815,13.2800847 74.5442011,13.2800847 C76.5349206,13.2800847 77.1982646,12.9702857 77.1982646,12.9702857 L76.9774709,11.5545926 C76.9774709,11.5545926 76.0927831,11.8200952 74.5883598,11.8200952 C73.1286455,11.7759365 71.6246349,10.625746 71.6246349,9.34266667 C71.6687937,8.19302646 72.9960317,6.90980952 74.720836,6.90980952 C76.0482116,6.90980952 77.0657884,7.30778836 77.0657884,7.30778836 Z M57.5125503,5.75961905 C57.5125503,5.75961905 61.1401693,5.58257143 61.1401693,7.7057672 C61.1401693,9.51971429 59.0611323,9.65232804 59.0611323,9.65232804 C59.0611323,9.65232804 59.635746,9.7410582 59.9016614,10.139037 C60.122455,10.4928571 61.5823069,13.1471958 61.5823069,13.1471958 L59.3707937,13.1471958 C59.3707937,13.1471958 59.0164233,12.7049206 58.8397884,12.3953968 C58.7068995,12.0855979 58.3089206,11.4221164 58.3089206,11.4221164 C58.3089206,11.4221164 57.9992593,10.3162222 56.9373862,10.3162222 C56.9106984,10.3162222 56.4777778,10.2997143 56.1410159,10.2870582 L56.1410159,13.1471958 L54.0178201,13.1471958 L54.0178201,5.75961905 L57.5125503,5.75961905 L57.5125503,5.75961905 Z M56.1410159,9.07716402 L57.2912063,9.07716402 C57.2912063,9.07716402 58.8839471,8.98884656 58.9722646,8.01584127 C59.0164233,7.08644444 57.4242328,6.95396825 57.4242328,6.95396825 L56.1410159,6.95396825 L56.1410159,9.07716402 Z M65.033291,10.2273545 L68.5720423,10.2273545 L68.5720423,8.85637037 L65.033291,8.85637037 L65.033291,7.17531217 L68.8817037,7.17531217 L68.8817037,5.75961905 L62.8653862,5.75961905 L62.8653862,13.1471958 L68.9258624,13.1471958 L68.9258624,11.8200952 L65.033291,11.8200952 L65.033291,10.2273545 Z M73.6595132,15.890127 L75.8272804,15.890127 L75.8272804,14.3859788 L73.6595132,14.3859788 L73.6595132,15.890127 Z M73.6595132,22.3487196 L75.8272804,22.3487196 L75.8272804,16.7306561 L73.6595132,16.7306561 L73.6595132,22.3487196 Z M50.036381,13.1471958 L52.1595767,13.1471958 L52.1595767,5.75961905 L50.036381,5.75961905 L50.036381,13.1471958 Z M40.1269418,15.0053016 L44.5505185,15.0053016 C44.5505185,15.0053016 48.9303492,14.9168466 48.8861905,18.8981481 C48.8420317,21.8621481 44.6393862,22.3045608 44.6393862,22.3045608 L40.1269418,22.3045608 L40.1269418,15.0053016 Z M42.294709,20.933164 L43.7102646,20.933164 C43.7102646,20.933164 46.6301058,20.7563915 46.6301058,18.5001693 C46.6301058,16.2439471 43.5333545,16.0227407 43.5333545,16.0227407 L42.294709,16.0227407 L42.294709,20.933164 L42.294709,20.933164 Z M42.294709,11.7317778 L43.7102646,11.7317778 C43.7102646,11.7317778 46.6301058,11.5104339 46.6301058,9.29850794 C46.6301058,6.99812698 43.5333545,6.8209418 43.5333545,6.8209418 L42.294709,6.8209418 L42.294709,11.7317778 L42.294709,11.7317778 Z"></path>
                <path d="M20.2640423,10.2016296 L20.2640423,25.0031958 C20.2640423,25.0031958 11.6819788,23.4547513 11.6819788,17.5710476 C11.6819788,12.8788042 18.0350582,10.8106349 20.2640423,10.2016296 Z M20.2640423,9.92553439 C15.106,9.55231746 3.40943915,11.9700423 3.40943915,17.2613862 C3.40943915,20.7119577 9.60266667,25.7551323 19.6890159,25.8878836 C20.0871323,25.8878836 31.5448783,25.4456085 31.3678307,13.1471958 C31.2193968,2.81817989 23.4881799,1.00904762 21.016254,0.694021164 L21.016254,0.0646560847 C30.8716296,0.689756614 38.6230688,6.61720635 38.6230688,13.8108148 C38.6230688,21.419873 29.9522751,27.6132381 19.2907619,27.6132381 C8.62952381,27.6132381 0.00302645503,21.419873 0.00302645503,13.8108148 C0.00302645503,6.20230688 8.62952381,0.00839153439 19.2907619,0.00839153439 C19.6173439,0.00839153439 19.9417249,0.0145820106 20.2640423,0.0262751323 L20.2640423,9.92553439 L20.2640423,9.92553439 Z"></path>
            </g>
        </g>
    </g>
</svg>