<?xml version="1.0" encoding="UTF-8"?>
<svg width="101px" height="52px" viewBox="0 0 101 52" version="1.1" xmlns="http://www.w3.org/2000/svg" xmlns:xlink="http://www.w3.org/1999/xlink">
    <!-- Generator: Sketch 60 (88103) - https://sketch.com -->
    <title>discover</title>
    <desc>Created with Sketch.</desc>
    <defs>
        <rect id="path-1" x="0" y="0" width="100" height="52" rx="2.66666667"></rect>
        <linearGradient x1="75.5551195%" y1="90.0119454%" x2="40.9921502%" y2="35.8964164%" id="linearGradient-3">
            <stop stop-color="#F89F20" offset="0%"></stop>
            <stop stop-color="#F79A20" offset="25.02%"></stop>
            <stop stop-color="#F68D20" offset="53.31%"></stop>
            <stop stop-color="#F58720" offset="61.96%"></stop>
            <stop stop-color="#F48120" offset="72.32%"></stop>
            <stop stop-color="#F37521" offset="100%"></stop>
        </linearGradient>
        <linearGradient x1="70.0984642%" y1="89.2836177%" x2="19.5836177%" y2="-9.45051195%" id="linearGradient-4">
            <stop stop-color="#F58720" offset="0%"></stop>
            <stop stop-color="#E16F27" offset="35.87%"></stop>
            <stop stop-color="#D4602C" offset="70.3%"></stop>
            <stop stop-color="#D05B2E" offset="98.16%"></stop>
        </linearGradient>
        <rect id="path-5" x="0" y="0" width="100" height="52" rx="2.66666667"></rect>
    </defs>
    <rect width="101" height="52" fill="#fff"/>
    <g id="页面-1" stroke="none" stroke-width="1" fill="none" fill-rule="evenodd">
        <g id="discover" transform="translate(0.746200, 0.000000)">
            <g id="XMLID_427_">
                <mask id="mask-2" fill="white">
                    <use xlink:href="#path-1"></use>
                </mask>
                <rect stroke="#EEEEEE" stroke-width="0.888888889" x="0.444444444" y="0.444444444" width="99.1111111" height="51.1111111" rx="2.66666667"></rect>
                <path d="M100,28.6641096 C100,28.6641096 77.1516591,44.7754033 35.3110502,52 L100,52 L100,28.6641096 Z" fill="#F48120" fill-rule="nonzero" mask="url(#mask-2)"></path>
            </g>
            <g id="Discover-Card-01" transform="translate(10.187500, 18.687500)" fill-rule="nonzero">
                <path d="M3.59013699,0.39890411 L0.110806697,0.39890411 L0.110806697,12.5876408 L3.59013699,12.5876408 C5.42952816,12.5876408 6.75920852,12.144414 7.93375951,11.1914764 C9.3299239,10.0390868 10.1498935,8.31050228 10.1498935,6.51543379 C10.1277321,2.90313546 7.44621005,0.39890411 3.59013699,0.39890411 Z M6.38246575,9.57369863 C5.62898021,10.2385388 4.67604262,10.5487976 3.12474886,10.5487976 L2.48207002,10.5487976 L2.48207002,2.48207002 L3.12474886,2.48207002 C4.65388128,2.48207002 5.58465753,2.74800609 6.38246575,3.45716895 C7.20243531,4.18849315 7.68998478,5.31872146 7.68998478,6.49327245 C7.68998478,7.66782344 7.20243531,8.84237443 6.38246575,9.57369863 Z" id="形状" fill="#231F20"></path>
                <rect id="XMLID_422_" fill="#231F20" x="11.2357991" y="0.39890411" width="2.37126332" height="12.1887367"></rect>
                <path d="M19.4133333,5.07494673 C17.9950076,4.54307458 17.5739422,4.18849315 17.5739422,3.54581431 C17.5739422,2.77016743 18.3274277,2.1939726 19.3468493,2.1939726 C20.0560122,2.1939726 20.6543683,2.48207002 21.2527245,3.19123288 L22.4937595,1.5734551 C21.4743379,0.687001522 20.2554642,0.221613394 18.9036225,0.221613394 C16.7539726,0.221613394 15.0918721,1.72858447 15.0918721,3.72310502 C15.0918721,5.40736682 15.867519,6.27165906 18.083653,7.06946728 C19.0144292,7.40188737 19.4798174,7.62350076 19.7235921,7.7564688 C20.1889802,8.06672755 20.4327549,8.50995434 20.4327549,9.01966514 C20.4327549,10.0169254 19.6571081,10.7482496 18.5933638,10.7482496 C17.4631355,10.7482496 16.5545205,10.1720548 16.0004871,9.13047184 L14.4713546,10.6152816 C15.5572603,12.2330594 16.8869406,12.9422222 18.6820091,12.9422222 C21.1419178,12.9422222 22.8926636,11.3022831 22.8926636,8.93101979 C22.9369863,6.95866058 22.1170167,6.072207 19.4133333,5.07494673 Z" id="XMLID_421_" fill="#231F20"></path>
                <path d="M23.6683105,6.51543379 C23.6683105,10.1055708 26.4828006,12.8757382 30.0950989,12.8757382 C31.1145205,12.8757382 32.0009741,12.6762861 33.0647184,12.1665753 L33.0647184,9.37424658 C32.1117808,10.3271842 31.2696499,10.7039269 30.2059056,10.7039269 C27.812481,10.7039269 26.1060578,8.97534247 26.1060578,6.49327245 C26.1060578,4.14417047 27.8568037,2.3047793 30.0950989,2.3047793 C31.2253272,2.3047793 32.0896195,2.70368341 33.0647184,3.67878234 L33.0647184,0.886453577 C32.0231355,0.354581431 31.1588432,0.132968037 30.1394216,0.132968037 C26.571446,0.132968037 23.6683105,2.96961948 23.6683105,6.51543379 Z" id="XMLID_420_" fill="#231F20"></path>
                <polygon id="XMLID_419_" fill="#231F20" points="51.9461796 8.5985997 48.6884627 0.39890411 46.095586 0.39890411 51.2591781 12.8978995 52.5445358 12.8978995 57.7967732 0.39890411 55.2260578 0.39890411"></polygon>
                <polygon id="XMLID_418_" fill="#231F20" points="58.8826788 12.5876408 65.619726 12.5876408 65.619726 10.5266362 61.2539422 10.5266362 61.2539422 7.24675799 65.4645967 7.24675799 65.4645967 5.18575342 61.2539422 5.18575342 61.2539422 2.48207002 65.619726 2.48207002 65.619726 0.39890411 58.8826788 0.39890411"></polygon>
                <path d="M75.0382953,4.01120244 C75.0382953,1.72858447 73.4648402,0.421065449 70.7168341,0.421065449 L67.1931811,0.421065449 L67.1931811,12.6098021 L69.5644444,12.6098021 L69.5644444,7.71214612 L69.8747032,7.71214612 L73.1545814,12.6098021 L76.0798782,12.6098021 L72.2459665,7.46837139 C74.041035,7.09162861 75.0382953,5.87275495 75.0382953,4.01120244 Z M70.251446,6.02788432 L69.5644444,6.02788432 L69.5644444,2.32694064 L70.2957686,2.32694064 C71.7805784,2.32694064 72.5783866,2.94745814 72.5783866,4.14417047 C72.5783866,5.36304414 71.7805784,6.02788432 70.251446,6.02788432 Z" id="形状" fill="#231F20"></path>
                <circle id="XMLID_415_" fill="url(#linearGradient-3)" cx="40.3557991" cy="6.53759513" r="6.49327245"></circle>
                <circle id="XMLID_414_" fill="url(#linearGradient-4)" opacity="0.65" cx="40.3557991" cy="6.53759513" r="6.49327245"></circle>
                <g id="XMLID_436_" transform="translate(75.126941, 0.000000)" fill="#231F20">
                    <path d="M1.41832572,0.864292237 C1.41832572,0.642678843 1.26319635,0.531872146 1.01942161,0.531872146 L0.664840183,0.531872146 L0.664840183,1.59561644 L0.930776256,1.59561644 L0.930776256,1.17455099 L1.24103501,1.59561644 L1.55129376,1.59561644 L1.19671233,1.15238965 C1.32968037,1.13022831 1.41832572,1.01942161 1.41832572,0.864292237 Z M0.975098935,1.01942161 L0.930776256,1.01942161 L0.930776256,0.731324201 L0.975098935,0.731324201 C1.10806697,0.731324201 1.17455099,0.77564688 1.17455099,0.864292237 C1.17455099,0.975098935 1.10806697,1.01942161 0.975098935,1.01942161 Z" id="形状"></path>
                    <path d="M1.06374429,0.132968037 C0.554033486,0.132968037 0.132968037,0.554033486 0.132968037,1.06374429 C0.132968037,1.5734551 0.554033486,1.99452055 1.06374429,1.99452055 C1.5734551,1.99452055 1.99452055,1.5734551 1.99452055,1.06374429 C1.99452055,0.554033486 1.5734551,0.132968037 1.06374429,0.132968037 Z M1.06374429,1.83939117 C0.664840183,1.83939117 0.310258752,1.50697108 0.310258752,1.06374429 C0.310258752,0.642678843 0.642678843,0.288097412 1.06374429,0.288097412 C1.4626484,0.288097412 1.79506849,0.642678843 1.79506849,1.06374429 C1.79506849,1.48480974 1.4626484,1.83939117 1.06374429,1.83939117 Z" id="形状"></path>
                </g>
            </g>
            <mask id="mask-6" fill="white">
                <use xlink:href="#path-5"></use>
            </mask>
            <rect stroke="#EEEEEE" stroke-width="0.888888889" x="0.444444444" y="0.444444444" width="99.1111111" height="51.1111111" rx="2.66666667"></rect>
        </g>
    </g>
</svg>