<?xml version="1.0" encoding="UTF-8"?>
<svg width="101px" height="52px" viewBox="0 0 101 52" version="1.1" xmlns="http://www.w3.org/2000/svg" xmlns:xlink="http://www.w3.org/1999/xlink">
    <!-- Generator: Sketch 60 (88103) - https://sketch.com -->
    <title>giropay</title>
    <desc>Created with Sketch.</desc>
    <g id="页面-1" stroke="none" stroke-width="1" fill="none" fill-rule="evenodd">
        <g id="giropay" transform="translate(0.492400, 0.000000)">
            <rect id="矩形" stroke="#EEEEEE" stroke-width="0.888888889" fill="#FFFFFF" x="0.444444444" y="0.444444444" width="99.1111111" height="51.1111111" rx="2.66666667"></rect>
            <g id="Giropay" transform="translate(12.500000, 9.500000)">
                <path d="M0.0602480006,5.75397586 C0.0602480006,2.58273542 2.64443898,0.011524477 5.83053502,0.011524477 L68.7167924,0.011524477 C71.9042575,0.011524477 74.4870497,2.58273542 74.4870497,5.75397586 L74.4870497,26.2754346 C74.4870497,29.4448297 71.9042575,32.0165162 68.7167924,32.0165162 L5.83053502,32.0165162 C2.64443898,32.0165162 0.0602480006,29.4448297 0.0602480006,26.2754346 L0.0602480006,5.75397586 L0.0602480006,5.75397586 Z" id="_92653320" fill="#000268"></path>
                <path d="M2.42851165,5.95046288 L2.42851165,26.0808232 C2.42851165,28.0621562 4.04378359,29.6691219 6.03625102,29.6691219 L38.9829518,29.6691219 L38.9829518,2.36216382 L6.03625102,2.36216382 C4.04378359,2.36216382 2.42851165,3.9691 2.42851165,5.95046288 L2.42851165,5.95046288 Z M47.4957799,15.9150924 C47.4957799,17.1967532 46.8618715,18.0776106 45.8123631,18.0776106 C44.8851822,18.0776106 44.1122742,17.1967532 44.1122742,16.0230409 C44.1122742,14.8183078 44.7920296,13.9226251 45.8123631,13.9226251 C46.8943216,13.9226251 47.4957799,14.8493589 47.4957799,15.9150924 Z M41.3335018,23.2658787 L44.1122742,23.2658787 L44.1122742,18.8949667 L44.1433253,18.8949667 C44.669702,19.8527509 45.7206094,20.2076778 46.6932205,20.2076778 C49.0864912,20.2076778 50.3681519,18.2314355 50.3681519,15.8529901 C50.3681519,13.907799 49.1485935,11.7906817 46.923973,11.7906817 C45.6585373,11.7906817 44.4848259,12.3008627 43.9273981,13.4286683 L43.8963469,13.4286683 L43.8963469,11.9774331 L41.3335018,11.9774331 L41.3335018,23.2658787 Z M54.1635365,17.4743055 C54.1635365,16.7027964 54.9039945,16.4104179 55.8474004,16.4104179 C56.2639826,16.4104179 56.6661857,16.4396232 57.0211126,16.4562952 C57.0211126,17.3978543 56.3571058,18.3556099 55.3061976,18.3556099 C54.6574933,18.3556099 54.1635365,18.0317333 54.1635365,17.4743055 Z M59.768864,20.0228017 C59.6460592,19.3903216 59.6150089,18.7559671 59.6150089,18.123487 L59.6150089,15.1273582 C59.6150089,12.6720146 57.8398677,11.7906817 55.7853283,11.7906817 C54.5967908,11.7906817 53.5621076,11.9607317 52.5732723,12.3629348 L52.6205485,14.2478998 C53.3901814,13.8146463 54.28771,13.6445955 55.1833936,13.6445955 C56.1856552,13.6445955 57.0044406,13.9388501 57.0211126,15.0356348 C56.6661857,14.9735325 56.17083,14.9262563 55.7232268,14.9262563 C54.241863,14.9262563 51.5696402,15.2205109 51.5696402,17.6754075 C51.5696402,19.4213728 52.9898545,20.2076778 54.5805657,20.2076778 C55.7232268,20.2076778 56.4961055,19.7614736 57.1290611,18.7559671 L57.1601123,18.7559671 C57.1601123,19.1743944 57.2055123,19.5895475 57.2222137,20.0228017 L59.768864,20.0228017 Z M61.0194442,23.2658787 C61.5912209,23.3900825 62.1621053,23.4526309 62.7487081,23.4526309 C65.2972338,23.4526309 65.8986627,21.4907383 66.6863969,19.4672198 L69.6370954,11.9774331 L66.8564477,11.9774331 L65.2040811,17.2278043 L65.17303,17.2278043 L63.4432897,11.9774331 L60.4485901,11.9774331 L63.7064931,20.2076778 C63.5053912,20.9184844 62.9808604,21.3206875 62.300658,21.3206875 C61.913281,21.3206875 61.5750261,21.2734113 61.2038742,21.1506367 L61.0194442,23.2658787 Z" id="_92186184" fill="#FFFFFF"></path>
                <path d="M9.21725597,15.9313175 C9.21725597,14.8345328 9.75845874,13.9226251 10.7931419,13.9226251 C12.0437809,13.9226251 12.5683125,14.9262563 12.5683125,15.8219398 C12.5683125,17.0577535 11.7805783,17.8913347 10.7931419,17.8913347 C9.95956071,17.8913347 9.21725597,17.1819271 9.21725597,15.9313175 Z M15.2558075,11.9774331 L12.7383625,11.9774331 L12.7383625,13.4286683 L12.7091572,13.4286683 C12.1206791,12.4398624 11.162448,11.7906817 9.97438599,11.7906817 C7.47313656,11.7906817 6.34533099,13.583893 6.34533099,15.9771645 C6.34533099,18.3556099 7.72011496,20.0228017 9.92666364,20.0228017 C11.0401195,20.0228017 11.9668533,19.5895475 12.6303846,18.6480177 L12.6614349,18.6480177 L12.6614349,19.0812418 C12.6614349,20.6557574 11.7968034,21.4124412 10.191713,21.4124412 C9.03282687,21.4124412 8.32157329,21.1654628 7.47313656,20.7489108 L7.3341369,22.9424499 C7.9814725,23.1746022 9.07825632,23.4526309 10.4076403,23.4526309 C13.6507172,23.4526309 15.2558075,22.386421 15.2558075,19.0812418 L15.2558075,11.9774331 Z M19.9538417,8.62637741 L17.1736696,8.62637741 L17.1736696,10.664722 L19.9538417,10.664722 L19.9538417,8.62637741 Z M17.1750685,20.0228017 L19.9538417,20.0228017 L19.9538417,11.9774331 L17.1750685,11.9774331 L17.1750685,20.0228017 Z M27.6938811,11.8838343 C27.4158516,11.838404 27.0757508,11.7906817 26.7523212,11.7906817 C25.547588,11.7906817 24.8530064,12.4398624 24.3738757,13.4597194 L24.3428246,13.4597194 L24.3428246,11.9774331 L21.8105542,11.9774331 L21.8105542,20.0228017 L24.589803,20.0228017 L24.589803,16.6263452 C24.589803,15.0504601 25.3168346,14.1089001 26.6133215,14.1089001 C26.938597,14.1089001 27.2458007,14.1089001 27.5548815,14.2001774 L27.6938811,11.8838343 Z M32.4800066,18.2624867 C31.198345,18.2624867 30.6738143,17.1967532 30.6738143,16.0082148 C30.6738143,14.8034816 31.198345,13.7377481 32.4800066,13.7377481 C33.7630663,13.7377481 34.288044,14.8034816 34.288044,16.0082148 C34.288044,17.1967532 33.7630663,18.2624867 32.4800066,18.2624867 Z M32.4800066,20.2076778 C35.1364505,20.2076778 37.159969,18.6646898 37.159969,16.0082148 C37.159969,13.3355459 35.1364505,11.7906817 32.4800066,11.7906817 C29.824008,11.7906817 27.8018893,13.3355459 27.8018893,16.0082148 C27.8018893,18.6646898 29.824008,20.2076778 32.4800066,20.2076778 Z" id="_47303032" fill="#FF0007"></path>
            </g>
        </g>
    </g>
</svg>