<?xml version="1.0" encoding="UTF-8"?>
<svg width="101px" height="52px" viewBox="0 0 101 52" version="1.1" xmlns="http://www.w3.org/2000/svg" xmlns:xlink="http://www.w3.org/1999/xlink">
    <!-- Generator: Sketch 60 (88103) - https://sketch.com -->
    <title>mastercard</title>
    <desc>Created with Sketch.</desc>
    <g id="页面-1" stroke="none" stroke-width="1" fill="none" fill-rule="evenodd">
        <g id="mastercard" transform="translate(0.753800, 0.000000)">
            <rect id="矩形" stroke="#EEEEEE" stroke-width="0.888888889" fill="#FFFFFF" x="0.444444444" y="0.444444444" width="99.1111111" height="51.1111111" rx="2.66666667"></rect>
            <g id="Mastercard-logo" transform="translate(22.000000, 8.500000)" fill-rule="nonzero">
                <polygon id="路径" fill="#FF5F00" points="35.0159147 30.4719606 20.4590591 30.4719606 20.4590591 4.11453819 35.0159147 4.11453819"></polygon>
                <g id="编组" transform="translate(14.235845, 17.342661) scale(-1, 1) rotate(-180.000000) translate(-14.235845, -17.342661) translate(0.235845, 0.342661)" fill="#EB001B">
                    <path d="M21.1557604,17.0515429 C21.1557604,22.3982673 23.6405044,27.1609763 27.509893,30.230254 C24.68031,32.4746634 21.1092177,33.8142752 17.2281935,33.8142752 C8.04024673,33.8142752 0.59236129,26.3094649 0.59236129,17.0515429 C0.59236129,7.79362081 8.04024673,0.288810507 17.2281935,0.288810507 C21.1092177,0.288810507 24.68031,1.62842234 27.509893,3.87283167 C23.6405044,6.94210939 21.1557604,11.7048185 21.1557604,17.0515429" id="路径"></path>
                </g>
                <g id="编组" transform="translate(41.145972, 17.342661) scale(-1, 1) rotate(-180.000000) translate(-41.145972, -17.342661) translate(27.145972, 0.342661)" fill="#F79E1B">
                    <path d="M27.5024885,17.0515429 C27.5024885,7.79362081 20.054603,0.288810507 10.8666563,0.288810507 C6.98563207,0.288810507 3.41453972,1.62842234 0.583898986,3.87283167 C4.45434535,6.94210939 6.9390894,11.7048185 6.9390894,17.0515429 C6.9390894,22.3982673 4.45434535,27.1609763 0.583898986,30.230254 C3.41453972,32.4746634 6.98563207,33.8142752 10.8666563,33.8142752 C20.054603,33.8142752 27.5024885,26.3094649 27.5024885,17.0515429" id="路径"></path>
                </g>
            </g>
        </g>
    </g>
</svg>