<?xml version="1.0" encoding="UTF-8"?>
<svg width="101px" height="52px" viewBox="0 0 101 52" version="1.1" xmlns="http://www.w3.org/2000/svg" xmlns:xlink="http://www.w3.org/1999/xlink">
    <!-- Generator: Sketch 60 (88103) - https://sketch.com -->
    <title>paypal</title>
    <desc>Created with Sketch.</desc>
    <g id="页面-1" stroke="none" stroke-width="1" fill="none" fill-rule="evenodd">
        <g id="paypal" transform="translate(0.496200, 0.000000)">
            <rect id="矩形" stroke="#EEEEEE" fill="#FFFFFF" x="0.5" y="0.5" width="99" height="51" rx="2.66666667"></rect>
            <g id="编组-6" transform="translate(14.250000, 16.250000)" fill-rule="nonzero">
                <path d="M8.56185368,0.000811330061 L3.01210337,0.000811330061 C2.63252294,0.000572069062 2.30925292,0.276677026 2.25011835,0.651622971 L0.00554905926,14.8826467 C-0.0153341596,15.0162903 0.0233288884,15.1523783 0.111358422,15.2550794 C0.199387955,15.3577805 0.32796174,15.4168022 0.463226962,15.4166047 L3.11272759,15.4166047 C3.49257089,15.416781 3.81593689,15.1402497 3.8747126,14.7649813 L4.48008089,10.9266542 C4.53880903,10.5516894 4.86171853,10.2752541 5.24125443,10.2750312 L6.99812084,10.2750312 C10.6538637,10.2750312 12.7637263,8.50599251 13.3147251,5.00037453 C13.5630397,3.46666667 13.3252744,2.26161049 12.6071096,1.41766542 C11.8183456,0.490948814 10.4193443,0.000811330061 8.56185368,0.000811330061 L8.56185368,0.000811330061 Z M9.20211585,5.19837703 C8.89862022,7.1897628 7.37708464,7.1897628 5.90586117,7.1897628 L5.06840799,7.1897628 L5.65592359,3.47072409 C5.69145689,3.2459425 5.8852172,3.0803995 6.11279001,3.0803995 L6.49662272,3.0803995 C7.49880749,3.0803995 8.44418826,3.0803995 8.93270262,3.65168539 C9.22402596,3.99250936 9.31328938,4.4988764 9.20211585,5.19837703 L9.20211585,5.19837703 Z M25.1510547,5.13426966 L22.4934392,5.13426966 C22.2658664,5.13427321 22.0721061,5.29981266 22.0365728,5.52459426 L21.9189074,6.26791511 L21.7330771,5.99850187 C21.1577338,5.16348315 19.874775,4.88433208 18.5942507,4.88433208 C15.6574841,4.88433208 13.149182,7.10861423 12.6606677,10.2287765 C12.4066727,11.785206 12.7677838,13.2734707 13.6506801,14.3113608 C14.4605428,15.2656679 15.6193443,15.6632959 16.9980584,15.6632959 C19.3643506,15.6632959 20.6765228,14.1417603 20.6765228,14.1417603 L20.5580459,14.8802122 C20.5366805,15.0138285 20.574895,15.1501001 20.6626213,15.2531238 C20.7503476,15.3561476 20.8787873,15.415591 21.0141009,15.4157928 L23.4079835,15.4157928 C23.7878268,15.4159695 24.1111928,15.1394382 24.1699685,14.7641698 L25.6062981,5.66822722 C25.6276936,5.53490393 25.589551,5.39890401 25.5019456,5.29615113 C25.4143402,5.19339825 25.2860838,5.13422792 25.1510547,5.13426966 L25.1510547,5.13426966 Z M21.4466227,10.3066792 C21.1901933,11.8249688 19.9851371,12.8441948 18.4481833,12.8441948 C17.6764604,12.8441948 17.0597313,12.5966916 16.6637263,12.1276529 C16.2709673,11.6618602 16.1216539,10.9988764 16.2466227,10.2604245 C16.486011,8.7551186 17.7113543,7.70262172 19.224775,7.70262172 C19.9794567,7.70262172 20.5929398,7.95337079 20.9970597,8.42646692 C21.401991,8.90443196 21.5626652,9.57147316 21.4466227,10.3066792 L21.4466227,10.3066792 Z M39.3049873,5.13426802 L36.634388,5.13426802 C36.3786876,5.13467443 36.1396807,5.26131469 35.9957488,5.47265918 L32.3124155,10.8982522 L30.7511171,5.68445693 C30.652713,5.35794836 30.3520571,5.13443442 30.0110422,5.13426802 L27.3866976,5.13426802 C27.2372317,5.1338722 27.0967856,5.20572346 27.0096512,5.32716405 C26.9225167,5.44860464 26.8994345,5.60466527 26.9476839,5.74612984 L29.8893193,14.3787141 L27.1237763,18.2827715 C27.0235803,18.4238832 27.0105415,18.6091241 27.0899821,18.7628801 C27.1694227,18.9166361 27.3280514,19.0131093 27.5011171,19.0131093 L30.1684704,19.0131093 C30.4212637,19.0134568 30.65813,18.8897162 30.8022407,18.6820225 L39.6847625,5.86054931 C39.78289,5.71916494 39.7944081,5.53499102 39.7146606,5.38248245 C39.6349131,5.22997387 39.4770876,5.13426802 39.3049873,5.13426802 L39.3049873,5.13426802 Z" id="形状" fill="#253B80"></path>
                <path d="M48.1469348,0.000811485643 L42.596373,0.000811485643 C42.2170999,0.000971491231 41.8942862,0.27698066 41.8351995,0.651622971 L39.5906302,14.8826467 C39.5695023,15.0160602 39.6078536,15.1520351 39.6955799,15.2547466 C39.7833061,15.3574582 39.911609,15.4166042 40.0466851,15.4166042 L42.8949997,15.4166042 C43.1604641,15.416215 43.3862175,15.2228104 43.4273343,14.9605493 L44.0643506,10.9266542 C44.1230787,10.5516894 44.4459882,10.2752541 44.8255241,10.2750312 L46.581579,10.2750312 C50.2381333,10.2750312 52.3471845,8.50599251 52.8989948,5.00037453 C53.1481208,3.46666667 52.9087326,2.26161049 52.1905678,1.41766542 C51.4026152,0.490948814 50.0044255,0.000811485643 48.1469348,0.000811485643 L48.1469348,0.000811485643 Z M48.787197,5.19837703 C48.4845129,7.1897628 46.9629773,7.1897628 45.4909423,7.1897628 L44.6543006,7.1897628 L45.2426277,3.47072409 C45.2774763,3.24589049 45.4711645,3.08011818 45.6986826,3.08039914 L46.0825154,3.08039914 C47.0838886,3.08039914 48.0300809,3.08039914 48.5185953,3.65168539 C48.8099186,3.99250936 48.8983705,4.4988764 48.787197,5.19837703 L48.787197,5.19837703 Z M64.7353243,5.13426966 L62.0793318,5.13426966 C61.8516867,5.13364347 61.6578044,5.29958189 61.6232769,5.52459426 L61.5056115,6.26791511 L61.3189698,5.99850187 C60.7436265,5.16348315 59.4614791,4.88433208 58.1809548,4.88433208 C55.2441883,4.88433208 52.7366976,7.10861423 52.2481833,10.2287765 C51.9949997,11.785206 52.3544879,13.2734707 53.2373843,14.3113608 C54.0488699,15.2656679 55.2060484,15.6632959 56.5847625,15.6632959 C58.9510547,15.6632959 60.263227,14.1417603 60.263227,14.1417603 L60.1447501,14.8802122 C60.1233397,15.0141086 60.1617607,15.1506561 60.2498519,15.2537415 C60.337943,15.3568269 60.4668309,15.4160664 60.602428,15.4157928 L62.9954991,15.4157928 C63.375035,15.4155698 63.6979445,15.1391345 63.7566727,14.7641698 L65.1938137,5.66822722 C65.2144307,5.53449395 65.1755597,5.39843046 65.0874092,5.29577019 C64.9992587,5.19310993 64.8706374,5.13411164 64.7353243,5.13426966 L64.7353243,5.13426966 Z M61.0308924,10.3066792 C60.7760859,11.8249688 59.5694067,12.8441948 58.0324529,12.8441948 C57.2623531,12.8441948 56.644001,12.5966916 56.247996,12.1276529 C55.8552369,11.6618602 55.7075466,10.9988764 55.8308924,10.2604245 C56.0719036,8.7551186 57.295624,7.70262172 58.8090447,7.70262172 C59.5637263,7.70262172 60.1772095,7.95337079 60.5813293,8.42646692 C60.9878836,8.90443196 61.1485578,9.57147316 61.0308924,10.3066792 L61.0308924,10.3066792 Z M67.8684704,0.39113608 L65.5906302,14.8826467 C65.5695023,15.0160602 65.6078536,15.1520351 65.6955799,15.2547466 C65.7833061,15.3574582 65.911609,15.4166042 66.0466851,15.4166042 L68.3366976,15.4166042 C68.7172844,15.4166042 69.0402557,15.1406991 69.0986826,14.7649813 L71.3448749,0.534769039 C71.3659771,0.401278991 71.3276416,0.265236928 71.239946,0.162405184 C71.1522503,0.0595734403 71.0239674,0.000239173422 70.88882,-5.32907052e-15 L68.3245253,-5.32907052e-15 C68.0971235,0.000805207175 67.9039136,0.166511874 67.8684704,0.39113608 L67.8684704,0.39113608 Z" id="形状" fill="#179BD7"></path>
            </g>
        </g>
    </g>
</svg>