<?xml version="1.0" encoding="UTF-8"?>
<svg width="101px" height="52px" viewBox="0 0 101 52" version="1.1" xmlns="http://www.w3.org/2000/svg" xmlns:xlink="http://www.w3.org/1999/xlink">
    <!-- Generator: Sketch 60 (88103) - https://sketch.com -->
    <title>visa</title>
    <desc>Created with Sketch.</desc>
    <defs>
        <linearGradient x1="100%" y1="42.9185042%" x2="2.42040634%" y2="42.9185042%" id="linearGradient-1">
            <stop stop-color="#26479D" offset="0%"></stop>
            <stop stop-color="#222963" offset="100%"></stop>
        </linearGradient>
    </defs>
    <g id="页面-1" stroke="none" stroke-width="1" fill="none" fill-rule="evenodd">
        <g id="visa" transform="translate(0.940240, 0.000000)">
            <rect id="矩形" stroke="#EEEEEE" stroke-width="0.888888889" fill="#FFFFFF" x="0.444444444" y="0.444444444" width="99.1111111" height="51.1111111" rx="2.66666667"></rect>
            <path d="M48.6183575,16.562963 L45.428643,35.437037 L40.3285024,35.437037 L43.5184958,16.562963 L48.6183575,16.562963 Z M60.1255408,16.6592593 C61.9882359,16.6592593 63.4946648,17.0653486 64.4444444,17.4331422 L64.4444444,17.4331422 L63.7895784,21.35833 L63.3540543,21.1653091 C62.4827427,20.7977725 61.3325798,20.4304929 59.7671682,20.4693028 C57.866029,20.4693028 57.0134129,21.2616911 56.9936642,22.035317 C56.9936642,22.8863055 58.0250717,23.4471201 59.7092387,24.2788322 C62.4835326,25.5744629 63.7703563,27.1600105 63.7511343,29.2292672 C63.7121636,33.0002438 60.4228242,35.437037 55.3703231,35.437037 C53.2100813,35.4175036 51.1293609,34.9718334 50,34.4696191 L50,34.4696191 L50.6738248,30.389192 L51.3078889,30.679623 C52.8733006,31.357124 53.9033915,31.646527 55.8258592,31.646527 C57.2122162,31.646527 58.6986332,31.0851984 58.7175919,29.8674443 C58.7175919,29.074542 58.0843177,28.493937 56.2213594,27.6043957 C54.3986883,26.7338737 51.9617017,25.2837749 52.0011991,22.6729801 C52.0217377,19.1343482 55.3703231,16.6592593 60.1255408,16.6592593 Z M77.7395596,16.562963 L81.7777778,35.437037 L77.1431198,35.437037 C77.1431198,35.437037 76.6895627,33.2684253 76.5458587,32.6057791 L76.5458587,32.6057791 L70.1191439,32.6057791 C69.9332868,33.1075008 69.0685996,35.437037 69.0685996,35.437037 L69.0685996,35.437037 L63.8164251,35.437037 L71.2515311,18.128975 C71.7666756,16.9040269 72.6737898,16.562963 73.8677644,16.562963 L73.8677644,16.562963 L77.7395596,16.562963 Z M26.586637,16.562963 C27.6527952,16.6007839 28.5279646,16.9110929 28.8668796,17.976797 L28.9158857,18.151414 L30.6259886,26.3966268 L30.7028701,26.6156458 L30.7028701,26.6156458 L30.7730214,26.8339173 L31.3189988,29.4469383 L36.3153752,16.562963 L41.7101449,16.562963 L33.6909454,35.437037 L28.2958967,35.437037 L23.7713816,19.099151 C22.3022589,18.2671481 20.6368923,17.5847 18.7837798,17.0881355 L18.2222222,16.944779 L18.3069273,16.562963 L26.586637,16.562963 Z M74.2178546,21.66291 C73.9706838,22.3655872 73.538477,23.5102064 73.5592799,23.4699085 C73.5592799,23.4699085 71.9730619,27.6664898 71.5608368,28.7507956 L71.5608368,28.7507956 L75.7214086,28.7507956 C75.5155698,27.8071319 74.5676711,23.2892354 74.5676711,23.2892354 L74.5676711,23.2892354 Z" id="形状结合" fill="url(#linearGradient-1)" fill-rule="nonzero"></path>
        </g>
    </g>
</svg>